<svg width="14" height="4" viewBox="0 0 14 4" fill="none" xmlns="http://www.w3.org/2000/svg">
<path d="M2.28001 3.15377C1.89824 3.15377 1.57126 3.01944 1.29907 2.75079C1.03042 2.48214 0.897862 2.15693 0.901397 1.77516C0.897862 1.40046 1.03042 1.08055 1.29907 0.815437C1.57126 0.546785 1.89824 0.41246 2.28001 0.41246C2.64056 0.41246 2.9587 0.546785 3.23443 0.815437C3.51368 1.08055 3.65508 1.40046 3.65861 1.77516C3.65508 2.02967 3.58791 2.26121 3.45712 2.46977C3.32987 2.67832 3.16196 2.84446 2.9534 2.96819C2.74838 3.09191 2.52391 3.15377 2.28001 3.15377ZM7.2616 3.15377C6.87984 3.15377 6.55286 3.01944 6.28067 2.75079C6.01202 2.48214 5.87946 2.15693 5.883 1.77516C5.87946 1.40046 6.01202 1.08055 6.28067 0.815437C6.55286 0.546785 6.87984 0.41246 7.2616 0.41246C7.62216 0.41246 7.9403 0.546785 8.21602 0.815437C8.49528 1.08055 8.63668 1.40046 8.64021 1.77516C8.63668 2.02967 8.56951 2.26121 8.43872 2.46977C8.31147 2.67832 8.14356 2.84446 7.935 2.96819C7.72998 3.09191 7.50551 3.15377 7.2616 3.15377ZM12.2432 3.15377C11.8614 3.15377 11.5345 3.01944 11.2623 2.75079C10.9936 2.48214 10.8611 2.15693 10.8646 1.77516C10.8611 1.40046 10.9936 1.08055 11.2623 0.815437C11.5345 0.546785 11.8614 0.41246 12.2432 0.41246C12.6038 0.41246 12.9219 0.546785 13.1976 0.815437C13.4769 1.08055 13.6183 1.40046 13.6218 1.77516C13.6183 2.02967 13.5511 2.26121 13.4203 2.46977C13.2931 2.67832 13.1252 2.84446 12.9166 2.96819C12.7116 3.09191 12.4871 3.15377 12.2432 3.15377Z" fill="#0D062D"/>
</svg>
