<svg width="14" height="15" viewBox="0 0 14 15" fill="none" xmlns="http://www.w3.org/2000/svg">
<path d="M6.39453 1.50904C6.62074 0.812838 7.60567 0.812838 7.83188 1.50904L8.92287 4.86676C9.02404 5.17811 9.31418 5.38891 9.64155 5.38891H13.1721C13.9041 5.38891 14.2085 6.32564 13.6162 6.75591L10.76 8.8311C10.4951 9.02353 10.3843 9.36461 10.4855 9.67596L11.5765 13.0337C11.8027 13.7299 11.0058 14.3088 10.4136 13.8785L7.55737 11.8034C7.29252 11.6109 6.93389 11.6109 6.66904 11.8034L3.81279 13.8785C3.22057 14.3088 2.42374 13.7299 2.64995 13.0337L3.74094 9.67596C3.8421 9.36461 3.73128 9.02353 3.46643 8.8311L0.610173 6.75591C0.0179521 6.32564 0.322314 5.38891 1.05434 5.38891H4.58486C4.91224 5.38891 5.20238 5.17811 5.30354 4.86676L6.39453 1.50904Z" fill="#FFA800"/>
</svg>
